# xmcd
#
# Track frame offsets: 
#        150
#        15978
#        34211
#        49651
#        71921
#        87930
#        107095
#        133187
#        152899
#        172684
#        188946
#        212520
#        227794
#        249630
#        270768
#
# Disc length: 3865 seconds
#
# Revision: 0
# Processed by: cddbd v1.5.2PL0 Copyright (c) Steve Scherf et al.
# Submitted via: ExactAudioCopyFreeDBPlugin 1.0
#
DISCID=c40f170f
DTITLE=群星 - 幻境 DTS
DYEAR=2011
DGENRE=Acid
TTITLE0=旷野的呼唤
TTITLE1=晨曦微露
TTITLE2=情调
TTITLE3=荡气
TTITLE4=雨韵
TTITLE5=赶风
TTITLE6=风唤
TTITLE7=星辉
TTITLE8=飞天
TTITLE9=忆思
TTITLE10=童趣
TTITLE11=雪情
TTITLE12=慰藉
TTITLE13=旋叶
TTITLE14=追寻
EXTD=
EXTT0=
EXTT1=
EXTT2=
EXTT3=
EXTT4=
EXTT5=
EXTT6=
EXTT7=
EXTT8=
EXTT9=
EXTT10=
EXTT11=
EXTT12=
EXTT13=
EXTT14=
PLAYORDER=
